<?xml version="1.0" encoding="UTF-8"?>
<svg width="27px" height="26px" viewBox="0 0 27 26" version="1.1" xmlns="http://www.w3.org/2000/svg" xmlns:xlink="http://www.w3.org/1999/xlink">
    <title>noun_send_3747327</title>
    <g id="Page-1" stroke="none" stroke-width="1" fill="none" fill-rule="evenodd">
        <g id="noun_send_3747327" fill="#000000" fill-rule="nonzero">
            <path d="M24.14,0.2 L0.68,13.74 C0.270525303,13.9620496 0.0248695556,14.3994333 0.0483436808,14.8646478 C0.0718178059,15.3298623 0.360253355,15.7402964 0.79,15.92 L6.17,18.18 L20.71,5.37 C20.7850258,5.2931879 20.8953312,5.26223636 20.9993653,5.28880454 C21.1033995,5.31537271 21.185357,5.39542426 21.2143653,5.49880454 C21.2433737,5.60218482 21.2150258,5.7131879 21.14,5.79 L9,20.64 L9,24.72 C8.9956089,25.2334921 9.31322665,25.6947645 9.79450027,25.873843 C10.2757739,26.0529216 10.8176627,25.9114656 11.15,25.52 L14.37,21.6 L20.67,24.25 C21.0141089,24.3922528 21.4043423,24.3695713 21.7296535,24.18841 C22.0549646,24.0072487 22.279734,23.6874436 22.34,23.32 L25.99,1.46 C26.0810648,0.982585845 25.8800721,0.49665978 25.4783699,0.22306803 C25.0766677,-0.0505237209 24.550892,-0.0595859468 24.14,0.2 Z" id="Path"></path>
        </g>
    </g>
</svg>